<mxfile host="app.diagrams.net" agent="Mozilla/5.0 (Macintosh; Intel Mac OS X 10_15_7) AppleWebKit/605.1.15 (KHTML, like Gecko) Version/18.5 Safari/605.1.15" version="27.2.0">
  <diagram name="Página-1" id="zy7NJMfiYqkKITzRo7vl">
    <mxGraphModel grid="1" page="1" gridSize="10" guides="1" tooltips="1" connect="1" arrows="1" fold="1" pageScale="1" pageWidth="827" pageHeight="1169" math="0" shadow="0">
      <root>
        <mxCell id="0" />
        <mxCell id="1" parent="0" />
        <mxCell id="Jk39zFDKFCLo2oz8aq1m-1" value="Cliente" style="shape=umlLifeline;perimeter=lifelinePerimeter;whiteSpace=wrap;container=1;dropTarget=0;collapsible=0;recursiveResize=0;outlineConnect=0;portConstraint=eastwest;newEdgeStyle={&quot;edgeStyle&quot;:&quot;elbowEdgeStyle&quot;,&quot;elbow&quot;:&quot;vertical&quot;,&quot;curved&quot;:0,&quot;rounded&quot;:0};size=65;" vertex="1" parent="1">
          <mxGeometry x="20" y="20" width="150" height="544" as="geometry" />
        </mxCell>
        <mxCell id="Jk39zFDKFCLo2oz8aq1m-2" value="Frontend" style="shape=umlLifeline;perimeter=lifelinePerimeter;whiteSpace=wrap;container=1;dropTarget=0;collapsible=0;recursiveResize=0;outlineConnect=0;portConstraint=eastwest;newEdgeStyle={&quot;edgeStyle&quot;:&quot;elbowEdgeStyle&quot;,&quot;elbow&quot;:&quot;vertical&quot;,&quot;curved&quot;:0,&quot;rounded&quot;:0};size=65;" vertex="1" parent="1">
          <mxGeometry x="294" y="20" width="150" height="544" as="geometry" />
        </mxCell>
        <mxCell id="Jk39zFDKFCLo2oz8aq1m-3" value="RegisterView" style="shape=umlLifeline;perimeter=lifelinePerimeter;whiteSpace=wrap;container=1;dropTarget=0;collapsible=0;recursiveResize=0;outlineConnect=0;portConstraint=eastwest;newEdgeStyle={&quot;edgeStyle&quot;:&quot;elbowEdgeStyle&quot;,&quot;elbow&quot;:&quot;vertical&quot;,&quot;curved&quot;:0,&quot;rounded&quot;:0};size=65;" vertex="1" parent="1">
          <mxGeometry x="584" y="20" width="150" height="544" as="geometry" />
        </mxCell>
        <mxCell id="Jk39zFDKFCLo2oz8aq1m-4" value="User" style="shape=umlLifeline;perimeter=lifelinePerimeter;whiteSpace=wrap;container=1;dropTarget=0;collapsible=0;recursiveResize=0;outlineConnect=0;portConstraint=eastwest;newEdgeStyle={&quot;edgeStyle&quot;:&quot;elbowEdgeStyle&quot;,&quot;elbow&quot;:&quot;vertical&quot;,&quot;curved&quot;:0,&quot;rounded&quot;:0};size=65;" vertex="1" parent="1">
          <mxGeometry x="927" y="20" width="150" height="544" as="geometry" />
        </mxCell>
        <mxCell id="Jk39zFDKFCLo2oz8aq1m-5" value="Client" style="shape=umlLifeline;perimeter=lifelinePerimeter;whiteSpace=wrap;container=1;dropTarget=0;collapsible=0;recursiveResize=0;outlineConnect=0;portConstraint=eastwest;newEdgeStyle={&quot;edgeStyle&quot;:&quot;elbowEdgeStyle&quot;,&quot;elbow&quot;:&quot;vertical&quot;,&quot;curved&quot;:0,&quot;rounded&quot;:0};size=65;" vertex="1" parent="1">
          <mxGeometry x="1127" y="20" width="150" height="544" as="geometry" />
        </mxCell>
        <mxCell id="Jk39zFDKFCLo2oz8aq1m-6" value="Preenche dados de registro" style="verticalAlign=bottom;edgeStyle=elbowEdgeStyle;elbow=vertical;curved=0;rounded=0;endArrow=block;" edge="1" parent="1" source="Jk39zFDKFCLo2oz8aq1m-1" target="Jk39zFDKFCLo2oz8aq1m-2">
          <mxGeometry relative="1" as="geometry">
            <Array as="points">
              <mxPoint x="241" y="123" />
            </Array>
          </mxGeometry>
        </mxCell>
        <mxCell id="Jk39zFDKFCLo2oz8aq1m-7" value="POST /register (dados)" style="verticalAlign=bottom;edgeStyle=elbowEdgeStyle;elbow=vertical;curved=0;rounded=0;endArrow=block;" edge="1" parent="1" source="Jk39zFDKFCLo2oz8aq1m-2" target="Jk39zFDKFCLo2oz8aq1m-3">
          <mxGeometry relative="1" as="geometry">
            <Array as="points">
              <mxPoint x="523" y="171" />
            </Array>
          </mxGeometry>
        </mxCell>
        <mxCell id="Jk39zFDKFCLo2oz8aq1m-8" value="Cria User (nome, email, telefone, senha)" style="verticalAlign=bottom;edgeStyle=elbowEdgeStyle;elbow=vertical;curved=0;rounded=0;endArrow=block;" edge="1" parent="1" source="Jk39zFDKFCLo2oz8aq1m-3" target="Jk39zFDKFCLo2oz8aq1m-4">
          <mxGeometry relative="1" as="geometry">
            <Array as="points">
              <mxPoint x="839" y="219" />
            </Array>
          </mxGeometry>
        </mxCell>
        <mxCell id="Jk39zFDKFCLo2oz8aq1m-9" value="User criado" style="verticalAlign=bottom;edgeStyle=elbowEdgeStyle;elbow=vertical;curved=0;rounded=0;dashed=1;dashPattern=2 3;endArrow=block;" edge="1" parent="1" source="Jk39zFDKFCLo2oz8aq1m-4" target="Jk39zFDKFCLo2oz8aq1m-3">
          <mxGeometry relative="1" as="geometry">
            <Array as="points">
              <mxPoint x="842" y="267" />
            </Array>
          </mxGeometry>
        </mxCell>
        <mxCell id="Jk39zFDKFCLo2oz8aq1m-10" value="Cria Client associado ao User" style="verticalAlign=bottom;edgeStyle=elbowEdgeStyle;elbow=vertical;curved=0;rounded=0;endArrow=block;" edge="1" parent="1" source="Jk39zFDKFCLo2oz8aq1m-3" target="Jk39zFDKFCLo2oz8aq1m-5">
          <mxGeometry relative="1" as="geometry">
            <Array as="points">
              <mxPoint x="939" y="315" />
            </Array>
          </mxGeometry>
        </mxCell>
        <mxCell id="Jk39zFDKFCLo2oz8aq1m-11" value="Client criado" style="verticalAlign=bottom;edgeStyle=elbowEdgeStyle;elbow=vertical;curved=0;rounded=0;dashed=1;dashPattern=2 3;endArrow=block;" edge="1" parent="1" source="Jk39zFDKFCLo2oz8aq1m-5" target="Jk39zFDKFCLo2oz8aq1m-3">
          <mxGeometry relative="1" as="geometry">
            <Array as="points">
              <mxPoint x="942" y="363" />
            </Array>
          </mxGeometry>
        </mxCell>
        <mxCell id="Jk39zFDKFCLo2oz8aq1m-12" value="201 Created + dados do usuário" style="verticalAlign=bottom;edgeStyle=elbowEdgeStyle;elbow=vertical;curved=0;rounded=0;dashed=1;dashPattern=2 3;endArrow=block;" edge="1" parent="1" source="Jk39zFDKFCLo2oz8aq1m-3" target="Jk39zFDKFCLo2oz8aq1m-2">
          <mxGeometry relative="1" as="geometry">
            <Array as="points">
              <mxPoint x="526" y="411" />
            </Array>
          </mxGeometry>
        </mxCell>
        <mxCell id="Jk39zFDKFCLo2oz8aq1m-13" value="Exibe confirmação de registro" style="verticalAlign=bottom;edgeStyle=elbowEdgeStyle;elbow=vertical;curved=0;rounded=0;dashed=1;dashPattern=2 3;endArrow=block;" edge="1" parent="1" source="Jk39zFDKFCLo2oz8aq1m-2" target="Jk39zFDKFCLo2oz8aq1m-1">
          <mxGeometry relative="1" as="geometry">
            <Array as="points">
              <mxPoint x="244" y="459" />
            </Array>
          </mxGeometry>
        </mxCell>
      </root>
    </mxGraphModel>
  </diagram>
</mxfile>
